<mxfile host="Electron" agent="Mozilla/5.0 (Windows NT 10.0; Win64; x64) AppleWebKit/537.36 (KHTML, like Gecko) draw.io/28.1.2 Chrome/138.0.7204.243 Electron/37.4.0 Safari/537.36" version="28.1.2">
  <diagram name="Pagina-1" id="MN7WsSKvXLgIGYer2BLl">
    <mxGraphModel dx="860" dy="602" grid="1" gridSize="10" guides="1" tooltips="1" connect="1" arrows="1" fold="1" page="1" pageScale="1" pageWidth="827" pageHeight="1169" math="1" shadow="0">
      <root>
        <mxCell id="0" />
        <mxCell id="1" parent="0" />
        <mxCell id="ddl-roebjKmBMkPWHnF6-1" value="$$q_{0}$$" style="ellipse;whiteSpace=wrap;html=1;fillColor=#1ba1e2;fontColor=#ffffff;strokeColor=#006EAF;sketch=1;curveFitting=1;jiggle=2;" parent="1" vertex="1">
          <mxGeometry x="320" y="320" width="40" height="40" as="geometry" />
        </mxCell>
        <mxCell id="ddl-roebjKmBMkPWHnF6-2" value="$$q_{1}$$" style="ellipse;whiteSpace=wrap;html=1;sketch=1;curveFitting=1;jiggle=2;fillColor=none;fontColor=#ffffff;strokeColor=#006EAF;" parent="1" vertex="1">
          <mxGeometry x="280" y="400" width="40" height="40" as="geometry" />
        </mxCell>
        <mxCell id="ddl-roebjKmBMkPWHnF6-4" value="" style="curved=1;endArrow=classic;html=1;rounded=0;exitX=0;exitY=1;exitDx=0;exitDy=0;entryX=0.5;entryY=0;entryDx=0;entryDy=0;sketch=1;curveFitting=1;jiggle=2;" parent="1" source="ddl-roebjKmBMkPWHnF6-1" target="ddl-roebjKmBMkPWHnF6-2" edge="1">
          <mxGeometry width="50" height="50" relative="1" as="geometry">
            <mxPoint x="394" y="416" as="sourcePoint" />
            <mxPoint x="446" y="416" as="targetPoint" />
            <Array as="points">
              <mxPoint x="300" y="370" />
            </Array>
          </mxGeometry>
        </mxCell>
        <mxCell id="ddl-roebjKmBMkPWHnF6-7" value="$$q_{2}$$" style="ellipse;whiteSpace=wrap;html=1;sketch=1;curveFitting=1;jiggle=2;fillColor=none;fontColor=#ffffff;strokeColor=#006EAF;" parent="1" vertex="1">
          <mxGeometry x="390" y="380" width="40" height="40" as="geometry" />
        </mxCell>
        <mxCell id="ddl-roebjKmBMkPWHnF6-11" value="" style="curved=1;endArrow=classic;html=1;rounded=0;exitX=1;exitY=1;exitDx=0;exitDy=0;entryX=0;entryY=1;entryDx=0;entryDy=0;sketch=1;curveFitting=1;jiggle=2;" parent="1" source="ddl-roebjKmBMkPWHnF6-2" target="ddl-roebjKmBMkPWHnF6-7" edge="1">
          <mxGeometry width="50" height="50" relative="1" as="geometry">
            <mxPoint x="440" y="339.79" as="sourcePoint" />
            <mxPoint x="480" y="339.79" as="targetPoint" />
            <Array as="points">
              <mxPoint x="370" y="430" />
            </Array>
          </mxGeometry>
        </mxCell>
        <mxCell id="ddl-roebjKmBMkPWHnF6-13" value="" style="curved=1;endArrow=classic;html=1;rounded=0;sketch=1;curveFitting=1;jiggle=2;entryX=1;entryY=0;entryDx=0;entryDy=0;exitX=1;exitY=0;exitDx=0;exitDy=0;" parent="1" source="ddl-roebjKmBMkPWHnF6-7" target="ddl-roebjKmBMkPWHnF6-1" edge="1">
          <mxGeometry width="50" height="50" relative="1" as="geometry">
            <mxPoint x="520" y="340" as="sourcePoint" />
            <mxPoint x="560" y="340" as="targetPoint" />
            <Array as="points">
              <mxPoint x="424" y="340" />
            </Array>
          </mxGeometry>
        </mxCell>
        <mxCell id="ddl-roebjKmBMkPWHnF6-21" value="&lt;font&gt;$$a$$&lt;/font&gt;" style="text;html=1;align=center;verticalAlign=middle;whiteSpace=wrap;rounded=0;" parent="1" vertex="1">
          <mxGeometry x="384" y="320" width="60" height="30" as="geometry" />
        </mxCell>
        <mxCell id="61cGgM1Lmk8JUmtUeZvV-2" value="" style="curved=1;endArrow=classic;html=1;rounded=0;exitX=1;exitY=0.5;exitDx=0;exitDy=0;entryX=0;entryY=0.5;entryDx=0;entryDy=0;sketch=1;curveFitting=1;jiggle=2;" parent="1" edge="1">
          <mxGeometry width="50" height="50" relative="1" as="geometry">
            <mxPoint x="280" y="340" as="sourcePoint" />
            <mxPoint x="320" y="340" as="targetPoint" />
            <Array as="points" />
          </mxGeometry>
        </mxCell>
        <mxCell id="61cGgM1Lmk8JUmtUeZvV-3" value="&lt;font&gt;START&lt;/font&gt;" style="text;html=1;align=center;verticalAlign=middle;whiteSpace=wrap;rounded=0;fontFamily=Comic Sans MS;" parent="1" vertex="1">
          <mxGeometry x="260" y="310" width="60" height="30" as="geometry" />
        </mxCell>
        <mxCell id="czhok3PqKYLS5xerufme-1" value="" style="curved=1;endArrow=classic;html=1;rounded=0;exitX=0.083;exitY=0.884;exitDx=0;exitDy=0;entryX=0;entryY=0.5;entryDx=0;entryDy=0;sketch=1;curveFitting=1;jiggle=2;exitPerimeter=0;" edge="1" parent="1" source="ddl-roebjKmBMkPWHnF6-2" target="ddl-roebjKmBMkPWHnF6-2">
          <mxGeometry width="50" height="50" relative="1" as="geometry">
            <mxPoint x="266" y="410" as="sourcePoint" />
            <mxPoint x="240" y="456" as="targetPoint" />
            <Array as="points">
              <mxPoint x="250" y="440" />
              <mxPoint x="250" y="420" />
            </Array>
          </mxGeometry>
        </mxCell>
        <mxCell id="czhok3PqKYLS5xerufme-3" value="" style="curved=1;endArrow=classic;html=1;rounded=0;sketch=1;curveFitting=1;jiggle=2;entryX=0;entryY=0.5;entryDx=0;entryDy=0;exitX=0.5;exitY=1;exitDx=0;exitDy=0;" edge="1" parent="1" source="ddl-roebjKmBMkPWHnF6-1" target="ddl-roebjKmBMkPWHnF6-7">
          <mxGeometry width="50" height="50" relative="1" as="geometry">
            <mxPoint x="450" y="390" as="sourcePoint" />
            <mxPoint x="380" y="330" as="targetPoint" />
            <Array as="points">
              <mxPoint x="360" y="400" />
            </Array>
          </mxGeometry>
        </mxCell>
        <mxCell id="czhok3PqKYLS5xerufme-4" value="&lt;font&gt;$$\mathcal{E}$$&lt;/font&gt;" style="text;html=1;align=center;verticalAlign=middle;whiteSpace=wrap;rounded=0;" vertex="1" parent="1">
          <mxGeometry x="340" y="370" width="60" height="30" as="geometry" />
        </mxCell>
        <mxCell id="czhok3PqKYLS5xerufme-5" value="&lt;font&gt;$$b$$&lt;/font&gt;" style="text;html=1;align=center;verticalAlign=middle;whiteSpace=wrap;rounded=0;" vertex="1" parent="1">
          <mxGeometry x="280" y="370" width="60" height="30" as="geometry" />
        </mxCell>
        <mxCell id="czhok3PqKYLS5xerufme-6" value="&lt;font&gt;$$a$$&lt;/font&gt;" style="text;html=1;align=center;verticalAlign=middle;whiteSpace=wrap;rounded=0;" vertex="1" parent="1">
          <mxGeometry x="230" y="390" width="60" height="30" as="geometry" />
        </mxCell>
        <mxCell id="czhok3PqKYLS5xerufme-7" value="&lt;font&gt;$$a,b$$&lt;/font&gt;" style="text;html=1;align=center;verticalAlign=middle;whiteSpace=wrap;rounded=0;" vertex="1" parent="1">
          <mxGeometry x="320" y="430" width="60" height="30" as="geometry" />
        </mxCell>
        <mxCell id="czhok3PqKYLS5xerufme-24" value="$$\{q_{0}\}$$" style="ellipse;whiteSpace=wrap;html=1;fillColor=#1ba1e2;fontColor=#ffffff;strokeColor=#006EAF;sketch=1;curveFitting=1;jiggle=2;" vertex="1" parent="1">
          <mxGeometry x="440" y="480" width="40" height="40" as="geometry" />
        </mxCell>
        <mxCell id="czhok3PqKYLS5xerufme-25" value="$$\{q_{1}\}$$" style="ellipse;whiteSpace=wrap;html=1;fillColor=#1ba1e2;fontColor=#ffffff;strokeColor=#006EAF;sketch=1;curveFitting=1;jiggle=2;" vertex="1" parent="1">
          <mxGeometry x="520" y="480" width="40" height="40" as="geometry" />
        </mxCell>
        <mxCell id="czhok3PqKYLS5xerufme-26" value="$$\{q_{2}\}$$" style="ellipse;whiteSpace=wrap;html=1;fillColor=#1ba1e2;fontColor=#ffffff;strokeColor=#006EAF;sketch=1;curveFitting=1;jiggle=2;" vertex="1" parent="1">
          <mxGeometry x="600" y="480" width="40" height="40" as="geometry" />
        </mxCell>
        <mxCell id="czhok3PqKYLS5xerufme-27" value="$$\{q_{0},q_{1}\}$$" style="ellipse;whiteSpace=wrap;html=1;fillColor=#1ba1e2;fontColor=#ffffff;strokeColor=#006EAF;sketch=1;curveFitting=1;jiggle=2;" vertex="1" parent="1">
          <mxGeometry x="680" y="480" width="40" height="40" as="geometry" />
        </mxCell>
        <mxCell id="czhok3PqKYLS5xerufme-28" value="$$\{q_{1},q_{2}\}$$" style="ellipse;whiteSpace=wrap;html=1;fillColor=#1ba1e2;fontColor=#ffffff;strokeColor=#006EAF;sketch=1;curveFitting=1;jiggle=2;" vertex="1" parent="1">
          <mxGeometry x="440" y="560" width="40" height="40" as="geometry" />
        </mxCell>
        <mxCell id="czhok3PqKYLS5xerufme-29" value="$$\{q_{0},q_{2}\}$$" style="ellipse;whiteSpace=wrap;html=1;fillColor=#1ba1e2;fontColor=#ffffff;strokeColor=#006EAF;sketch=1;curveFitting=1;jiggle=2;" vertex="1" parent="1">
          <mxGeometry x="520" y="560" width="40" height="40" as="geometry" />
        </mxCell>
        <mxCell id="czhok3PqKYLS5xerufme-30" value="$$\{q_{0},q_{1},q_{2}\}$$" style="ellipse;whiteSpace=wrap;html=1;fillColor=#1ba1e2;fontColor=#ffffff;strokeColor=#006EAF;sketch=1;curveFitting=1;jiggle=2;" vertex="1" parent="1">
          <mxGeometry x="600" y="560" width="40" height="40" as="geometry" />
        </mxCell>
        <mxCell id="czhok3PqKYLS5xerufme-31" value="$$\{\}$$" style="ellipse;whiteSpace=wrap;html=1;fillColor=#1ba1e2;fontColor=#ffffff;strokeColor=#006EAF;sketch=1;curveFitting=1;jiggle=2;" vertex="1" parent="1">
          <mxGeometry x="680" y="560" width="40" height="40" as="geometry" />
        </mxCell>
        <mxCell id="czhok3PqKYLS5xerufme-33" value="$$\{q_{0},q_{2}\}$$" style="ellipse;whiteSpace=wrap;html=1;fillColor=#1ba1e2;fontColor=#ffffff;strokeColor=#006EAF;sketch=1;curveFitting=1;jiggle=2;" vertex="1" parent="1">
          <mxGeometry x="160" y="640" width="40" height="40" as="geometry" />
        </mxCell>
        <mxCell id="czhok3PqKYLS5xerufme-34" value="&lt;font&gt;START&lt;/font&gt;" style="text;html=1;align=center;verticalAlign=middle;whiteSpace=wrap;rounded=0;fontFamily=Comic Sans MS;" vertex="1" parent="1">
          <mxGeometry x="110" y="630" width="60" height="30" as="geometry" />
        </mxCell>
        <mxCell id="czhok3PqKYLS5xerufme-35" value="" style="curved=1;endArrow=classic;html=1;rounded=0;entryX=0;entryY=0.5;entryDx=0;entryDy=0;sketch=1;curveFitting=1;jiggle=2;" edge="1" parent="1" target="czhok3PqKYLS5xerufme-33">
          <mxGeometry width="50" height="50" relative="1" as="geometry">
            <mxPoint x="120" y="660" as="sourcePoint" />
            <mxPoint x="140" y="664" as="targetPoint" />
            <Array as="points" />
          </mxGeometry>
        </mxCell>
        <mxCell id="czhok3PqKYLS5xerufme-38" value="" style="curved=1;endArrow=classic;html=1;rounded=0;sketch=1;curveFitting=1;jiggle=2;exitX=1;exitY=0;exitDx=0;exitDy=0;entryX=0.5;entryY=0;entryDx=0;entryDy=0;" edge="1" parent="1" source="czhok3PqKYLS5xerufme-33" target="czhok3PqKYLS5xerufme-33">
          <mxGeometry width="50" height="50" relative="1" as="geometry">
            <mxPoint x="230" y="620" as="sourcePoint" />
            <mxPoint x="170" y="620" as="targetPoint" />
            <Array as="points">
              <mxPoint x="220" y="630" />
              <mxPoint x="180" y="600" />
            </Array>
          </mxGeometry>
        </mxCell>
        <mxCell id="czhok3PqKYLS5xerufme-40" value="&lt;font&gt;$$a$$&lt;/font&gt;" style="text;html=1;align=center;verticalAlign=middle;whiteSpace=wrap;rounded=0;" vertex="1" parent="1">
          <mxGeometry x="170" y="585" width="60" height="30" as="geometry" />
        </mxCell>
        <mxCell id="czhok3PqKYLS5xerufme-41" value="$$\{q_{1}\}$$" style="ellipse;whiteSpace=wrap;html=1;fillColor=none;fontColor=#ffffff;strokeColor=#006EAF;sketch=1;curveFitting=1;jiggle=2;" vertex="1" parent="1">
          <mxGeometry x="200" y="720" width="40" height="40" as="geometry" />
        </mxCell>
        <mxCell id="czhok3PqKYLS5xerufme-42" value="" style="curved=1;endArrow=classic;html=1;rounded=0;sketch=1;curveFitting=1;jiggle=2;exitX=0.285;exitY=0.916;exitDx=0;exitDy=0;entryX=0;entryY=0.5;entryDx=0;entryDy=0;exitPerimeter=0;" edge="1" parent="1" source="czhok3PqKYLS5xerufme-33" target="czhok3PqKYLS5xerufme-41">
          <mxGeometry width="50" height="50" relative="1" as="geometry">
            <mxPoint x="114" y="726" as="sourcePoint" />
            <mxPoint x="100" y="720" as="targetPoint" />
            <Array as="points">
              <mxPoint x="150" y="740" />
            </Array>
          </mxGeometry>
        </mxCell>
        <mxCell id="czhok3PqKYLS5xerufme-43" value="&lt;font&gt;$$b$$&lt;/font&gt;" style="text;html=1;align=center;verticalAlign=middle;whiteSpace=wrap;rounded=0;" vertex="1" parent="1">
          <mxGeometry x="130" y="720" width="60" height="30" as="geometry" />
        </mxCell>
        <mxCell id="czhok3PqKYLS5xerufme-44" value="$$\{q_{1},q_{2}\}$$" style="ellipse;whiteSpace=wrap;html=1;fillColor=none;fontColor=#ffffff;strokeColor=#006EAF;sketch=1;curveFitting=1;jiggle=2;" vertex="1" parent="1">
          <mxGeometry x="284" y="720" width="40" height="40" as="geometry" />
        </mxCell>
        <mxCell id="czhok3PqKYLS5xerufme-45" value="" style="curved=1;endArrow=classic;html=1;rounded=0;sketch=1;curveFitting=1;jiggle=2;exitX=1;exitY=0.5;exitDx=0;exitDy=0;" edge="1" parent="1" source="czhok3PqKYLS5xerufme-41">
          <mxGeometry width="50" height="50" relative="1" as="geometry">
            <mxPoint x="244" y="730" as="sourcePoint" />
            <mxPoint x="280" y="740" as="targetPoint" />
          </mxGeometry>
        </mxCell>
        <mxCell id="czhok3PqKYLS5xerufme-46" value="&lt;font&gt;$$a$$&lt;/font&gt;" style="text;html=1;align=center;verticalAlign=middle;whiteSpace=wrap;rounded=0;" vertex="1" parent="1">
          <mxGeometry x="230" y="740" width="60" height="30" as="geometry" />
        </mxCell>
        <mxCell id="czhok3PqKYLS5xerufme-47" value="$$\{q_{2}\}$$" style="ellipse;whiteSpace=wrap;html=1;fillColor=none;fontColor=#ffffff;strokeColor=#006EAF;sketch=1;curveFitting=1;jiggle=2;" vertex="1" parent="1">
          <mxGeometry x="280" y="640" width="40" height="40" as="geometry" />
        </mxCell>
        <mxCell id="czhok3PqKYLS5xerufme-48" value="" style="curved=1;endArrow=classic;html=1;rounded=0;sketch=1;curveFitting=1;jiggle=2;exitX=1;exitY=0;exitDx=0;exitDy=0;entryX=0;entryY=1;entryDx=0;entryDy=0;" edge="1" parent="1" source="czhok3PqKYLS5xerufme-41" target="czhok3PqKYLS5xerufme-47">
          <mxGeometry width="50" height="50" relative="1" as="geometry">
            <mxPoint x="260" y="730" as="sourcePoint" />
            <mxPoint x="300" y="730" as="targetPoint" />
            <Array as="points">
              <mxPoint x="270" y="710" />
            </Array>
          </mxGeometry>
        </mxCell>
        <mxCell id="czhok3PqKYLS5xerufme-49" value="&lt;font&gt;$$b$$&lt;/font&gt;" style="text;html=1;align=center;verticalAlign=middle;whiteSpace=wrap;rounded=0;" vertex="1" parent="1">
          <mxGeometry x="224" y="680" width="60" height="30" as="geometry" />
        </mxCell>
        <mxCell id="czhok3PqKYLS5xerufme-52" value="" style="curved=1;endArrow=classic;html=1;rounded=0;sketch=1;curveFitting=1;jiggle=2;exitX=0;exitY=0;exitDx=0;exitDy=0;entryX=1;entryY=0.5;entryDx=0;entryDy=0;" edge="1" parent="1" source="czhok3PqKYLS5xerufme-47" target="czhok3PqKYLS5xerufme-33">
          <mxGeometry width="50" height="50" relative="1" as="geometry">
            <mxPoint x="340" y="660" as="sourcePoint" />
            <mxPoint x="400" y="600" as="targetPoint" />
            <Array as="points">
              <mxPoint x="250" y="630" />
            </Array>
          </mxGeometry>
        </mxCell>
        <mxCell id="czhok3PqKYLS5xerufme-53" value="&lt;font&gt;$$a$$&lt;/font&gt;" style="text;html=1;align=center;verticalAlign=middle;whiteSpace=wrap;rounded=0;" vertex="1" parent="1">
          <mxGeometry x="224" y="615" width="60" height="30" as="geometry" />
        </mxCell>
        <mxCell id="czhok3PqKYLS5xerufme-54" value="$$\{q_{0},q_{1},q_{2}\}$$" style="ellipse;whiteSpace=wrap;html=1;fillColor=#1ba1e2;fontColor=#ffffff;strokeColor=#006EAF;sketch=1;curveFitting=1;jiggle=2;" vertex="1" parent="1">
          <mxGeometry x="360" y="760" width="40" height="40" as="geometry" />
        </mxCell>
        <mxCell id="czhok3PqKYLS5xerufme-56" value="" style="curved=1;endArrow=classic;html=1;rounded=0;sketch=1;curveFitting=1;jiggle=2;exitX=0.5;exitY=1;exitDx=0;exitDy=0;" edge="1" parent="1" source="czhok3PqKYLS5xerufme-44">
          <mxGeometry width="50" height="50" relative="1" as="geometry">
            <mxPoint x="310" y="799.67" as="sourcePoint" />
            <mxPoint x="350" y="780" as="targetPoint" />
            <Array as="points">
              <mxPoint x="300" y="790" />
            </Array>
          </mxGeometry>
        </mxCell>
        <mxCell id="czhok3PqKYLS5xerufme-57" value="&lt;font&gt;$$a$$&lt;/font&gt;" style="text;html=1;align=center;verticalAlign=middle;whiteSpace=wrap;rounded=0;" vertex="1" parent="1">
          <mxGeometry x="290" y="780" width="60" height="30" as="geometry" />
        </mxCell>
        <mxCell id="czhok3PqKYLS5xerufme-58" value="" style="curved=1;endArrow=classic;html=1;rounded=0;sketch=1;curveFitting=1;jiggle=2;exitX=1;exitY=0;exitDx=0;exitDy=0;entryX=1;entryY=1;entryDx=0;entryDy=0;" edge="1" parent="1" source="czhok3PqKYLS5xerufme-44" target="czhok3PqKYLS5xerufme-47">
          <mxGeometry width="50" height="50" relative="1" as="geometry">
            <mxPoint x="270" y="730" as="sourcePoint" />
            <mxPoint x="310" y="730" as="targetPoint" />
            <Array as="points">
              <mxPoint x="350" y="700" />
            </Array>
          </mxGeometry>
        </mxCell>
        <mxCell id="czhok3PqKYLS5xerufme-59" value="&lt;font&gt;$$b$$&lt;/font&gt;" style="text;html=1;align=center;verticalAlign=middle;whiteSpace=wrap;rounded=0;" vertex="1" parent="1">
          <mxGeometry x="290" y="680" width="60" height="30" as="geometry" />
        </mxCell>
        <mxCell id="czhok3PqKYLS5xerufme-61" value="" style="curved=1;endArrow=classic;html=1;rounded=0;sketch=1;curveFitting=1;jiggle=2;exitX=1;exitY=1;exitDx=0;exitDy=0;entryX=1;entryY=0;entryDx=0;entryDy=0;" edge="1" parent="1" source="czhok3PqKYLS5xerufme-54" target="czhok3PqKYLS5xerufme-54">
          <mxGeometry width="50" height="50" relative="1" as="geometry">
            <mxPoint x="414" y="796" as="sourcePoint" />
            <mxPoint x="400" y="790" as="targetPoint" />
            <Array as="points">
              <mxPoint x="430" y="810" />
              <mxPoint x="430" y="750" />
            </Array>
          </mxGeometry>
        </mxCell>
        <mxCell id="czhok3PqKYLS5xerufme-62" value="&lt;font&gt;$$a$$&lt;/font&gt;" style="text;html=1;align=center;verticalAlign=middle;whiteSpace=wrap;rounded=0;" vertex="1" parent="1">
          <mxGeometry x="410" y="765" width="60" height="30" as="geometry" />
        </mxCell>
        <mxCell id="czhok3PqKYLS5xerufme-63" value="" style="curved=1;endArrow=classic;html=1;rounded=0;sketch=1;curveFitting=1;jiggle=2;exitX=0.5;exitY=0;exitDx=0;exitDy=0;entryX=1;entryY=0.5;entryDx=0;entryDy=0;" edge="1" parent="1" source="czhok3PqKYLS5xerufme-54" target="czhok3PqKYLS5xerufme-44">
          <mxGeometry width="50" height="50" relative="1" as="geometry">
            <mxPoint x="378" y="724" as="sourcePoint" />
            <mxPoint x="378" y="696" as="targetPoint" />
            <Array as="points">
              <mxPoint x="380" y="740" />
            </Array>
          </mxGeometry>
        </mxCell>
        <mxCell id="czhok3PqKYLS5xerufme-64" value="&lt;font&gt;$$b$$&lt;/font&gt;" style="text;html=1;align=center;verticalAlign=middle;whiteSpace=wrap;rounded=0;" vertex="1" parent="1">
          <mxGeometry x="340" y="720" width="60" height="30" as="geometry" />
        </mxCell>
      </root>
    </mxGraphModel>
  </diagram>
</mxfile>
